#!OML:ASF C:\Vicon Data\Big\jianyuan-13\jianyuan\Session 1\Capture.male.ASF
:FULLY-SPECIFIED
:DEGREES
126
root -9.137593 17.435395 -15.948548 10.095367 -10.980968 0.605189
lowerback -12.097127 3.029528 -4.125619 
upperback 2.625339 4.791415 -1.019712 
thorax 9.371427 2.108977 2.172511 
lowerneck -5.079746 -2.846660 2.437349 
upperneck 23.439699 -4.005268 -1.108379 
head 7.988151 -1.780254 -1.107400 
rclavicle 0.000000 0.000000 
rhumerus -25.566122 -0.882582 -92.781673 
rradius 45.190925 
rwrist 21.223616 
rhand -16.608002 -16.754131 
rfingers 0.000000 
rthumb 9.613601 -46.514741 
lclavicle 0.000000 0.000000 
lhumerus -77.518418 42.587778 18.643280 
lradius 21.274071 
lwrist -79.768873 
lhand -21.570067 1.901723 
lfingers 0.000000 
lthumb 4.823918 31.826804 
rfemur -1.439894 2.099436 26.876524 
rtibia 25.246539 
rfoot -20.323960 -6.224050 
rtoes -29.250365 
lfemur -27.383859 -4.315828 -21.011386 
ltibia 9.188202 
lfoot -2.561017 6.463180 
ltoes -30.786927 
127
root -9.148451 17.441599 -15.841837 10.098139 -10.813406 0.693105
lowerback -12.255787 2.936270 -4.278901 
upperback 2.623997 4.699881 -1.022852 
thorax 9.456539 2.053106 2.247464 
lowerneck -5.104057 -2.835023 2.390429 
upperneck 23.544297 -4.006194 -1.012997 
head 8.031268 -1.774452 -1.070234 
rclavicle 0.000000 0.000000 
rhumerus -25.629900 -1.077506 -92.737807 
rradius 44.866027 
rwrist 21.420166 
rhand -16.779388 -16.576833 
rfingers 0.000000 
rthumb 9.448231 -46.345033 
lclavicle 0.000000 0.000000 
lhumerus -77.891461 42.667087 18.235937 
lradius 21.242404 
lwrist -80.324645 
lhand -21.929664 2.051730 
lfingers 0.000000 
lthumb 4.476705 31.984389 
rfemur -1.342360 2.025308 26.751109 
rtibia 25.810460 
rfoot -19.895122 -6.213047 
rtoes -29.195876 
lfemur -27.380801 -4.439187 -21.151490 
ltibia 9.858522 
lfoot -2.614683 6.339830 
ltoes -31.284558 
128
root -9.157178 17.455331 -15.734433 10.092495 -10.685179 0.857274
lowerback -12.356976 2.934982 -4.437469 
upperback 2.555759 4.737053 -1.143102 
thorax 9.436757 2.067025 2.218496 
lowerneck -5.060681 -2.935353 2.466935 
upperneck 23.719763 -4.178522 -0.911447 
head 8.080736 -1.837384 -1.065219 
rclavicle 0.000000 0.000000 
rhumerus -25.800762 -1.456530 -92.740946 
rradius 44.635465 
rwrist 21.547054 
rhand -16.746069 -16.756815 
rfingers 0.000000 
rthumb 9.480377 -46.523594 
lclavicle 0.000000 0.000000 
lhumerus -77.350045 42.441937 18.881669 
lradius 21.275358 
lwrist -79.509691 
lhand -21.754434 2.050602 
lfingers 0.000000 
lthumb 4.645933 31.979659 
rfemur -1.369497 1.722968 26.496474 
rtibia 26.457091 
rfoot -19.388376 -6.237368 
rtoes -30.202238 
lfemur -27.370972 -4.481109 -21.413185 
ltibia 10.564118 
lfoot -2.654444 6.000586 
ltoes -31.194787 
129
root -9.164518 17.463338 -15.630641 10.084911 -10.429962 0.887305
lowerback -12.435949 2.855244 -4.443218 
upperback 2.543362 4.639097 -1.180824 
thorax 9.478218 2.019342 2.167282 
lowerneck -5.023967 -2.959024 2.413084 
upperneck 23.777396 -4.233612 -0.777720 
head 8.097455 -1.854884 -1.016557 
rclavicle 0.000000 0.000000 
rhumerus -25.906462 -1.638703 -92.762901 
rradius 44.367373 
rwrist 21.543977 
rhand -16.824566 -16.773336 
rfingers 0.000000 
rthumb 9.404630 -46.543549 
lclavicle 0.000000 0.000000 
lhumerus -77.255778 42.423990 18.980927 
lradius 21.282929 
lwrist -79.250515 
lhand -21.684687 1.985695 
lfingers 0.000000 
lthumb 4.713265 31.913290 
rfemur -1.407851 1.363525 26.422601 
rtibia 27.135867 
rfoot -18.722274 -6.293610 
rtoes -30.809648 
lfemur -27.349864 -4.454046 -21.585080 
ltibia 11.210743 
lfoot -2.544696 5.422297 
ltoes -30.877941 
130
root -9.174173 17.477033 -15.521953 10.096698 -10.245453 0.937322
lowerback -12.551627 2.819832 -4.519821 
upperback 2.481186 4.612823 -1.232577 
thorax 9.477649 2.004486 2.154735 
lowerneck -4.959274 -3.030173 2.509214 
upperneck 23.923490 -4.349773 -0.756614 
head 8.131766 -1.897398 -1.036000 
rclavicle 0.000000 0.000000 
rhumerus -26.071542 -1.983094 -92.704239 
rradius 44.014343 
rwrist 21.733891 
rhand -16.823016 -16.744385 
rfingers 0.000000 
rthumb 9.406092 -46.514478 
lclavicle 0.000000 0.000000 
lhumerus -77.208675 42.391246 18.980024 
lradius 21.316637 
lwrist -79.272071 
lhand -21.626963 1.914220 
lfingers 0.000000 
lthumb 4.768962 31.840592 
rfemur -1.546484 0.888319 26.291520 
rtibia 27.867659 
rfoot -17.828629 -6.285662 
rtoes -31.972181 
lfemur -27.323379 -4.451763 -21.748799 
ltibia 11.873364 
lfoot -2.624117 4.807177 
ltoes -30.809039 
